<svg xmlns="http://www.w3.org/2000/svg" viewBox="0 0 575.95 448"><defs><style>.cls-1{fill:#fff;}</style></defs><g id="Слой_2" data-name="Слой 2"><g id="Слой_1-2" data-name="Слой 1"><path class="cls-1" d="M544,248.9c0-89.17-61.83-165.4-139.6-197.4L352,142.2V17.78A17.71,17.71,0,0,0,334.2,0H241.8A17.71,17.71,0,0,0,224,17.78v124.4L171.6,51.53C93.83,83.5,32,159.7,32,248.9V320H544Zm30.7,112.8A16,16,0,0,0,560,352H16A16,16,0,0,0,4.37,379C7,381.8,72,448,287.1,448s280.1-66.19,283.6-69A14.86,14.86,0,0,0,574.7,361.7Z"/></g></g></svg>