<svg xmlns="http://www.w3.org/2000/svg" viewBox="0 0 456 456"><defs><style>.cls-1{fill:#fff;}.cls-2{fill:#f4ca16;}</style></defs><g id="Слой_2" data-name="Слой 2"><g id="Слой_1-2" data-name="Слой 1"><rect class="cls-1" width="456" height="456"/><g id="Слой_2-2" data-name="Слой 2"><g id="Слой_1-2-2" data-name="Слой 1-2"><path class="cls-2" d="M215.31,298.3c0-23.74.07-47.47-.07-71.2,0-3.6,1-4.84,4.65-4.66,5.48.27,11,.24,16.5,0,3.11-.13,4.09.9,4.07,4-.12,15.24,0,30.49,0,45.75v96.7c0,4.92,0,4.92-5,4.92-5.25,0-10.5-.16-15.75.06-3.33.14-4.5-.75-4.5-4.38.17-23.73.09-47.47.09-71.25Z"/><path d="M215.35,149.59c0-21.1.1-42.2-.09-63.3,0-3.58,1.08-4.33,4.37-4.19,6.1.24,12.23.13,18.34,0,1.94,0,2.8.59,2.64,2.54-.05.62,0,1.25,0,1.87q0,63.31.07,126.61c0,3.13-.75,4-3.88,3.89-5.86-.25-11.75-.24-17.61,0-3,.13-3.95-.54-3.93-3.75C215.44,192.05,215.35,170.82,215.35,149.59Z"/><path d="M210.81,177.17c0,21.23-.08,42.45.07,63.67,0,3.2-.91,3.95-3.95,3.82-5.86-.25-11.74-.26-17.59,0-3.1.13-4-.75-3.94-3.89.12-34.2.07-68.41.07-102.61,0-8,.14-16-.07-24-.08-3,.49-4.16,3.75-4,6,.29,12,.24,18,0,2.91-.11,3.75.68,3.75,3.67C210.74,135,210.81,156.08,210.81,177.17Z"/><path d="M274.88,280.4v-3.24q0-67.5-.07-135c0-3.28.75-4.26,4.07-4.09,6.23.3,12.49.15,18.75,0,1.86,0,2.56.37,2.56,2.44q-.1,57,0,114a4.36,4.36,0,0,1-1.21,3.34c-7.5,7.85-14.92,15.75-22.36,23.67Z"/><path d="M179.44,281.72c-7.56-8-15-15.94-22.5-23.78a4.87,4.87,0,0,1-1.28-3.71V141.13c0-2.2.42-3.06,2.84-3,6.62.17,13.23.1,19.85,0,1.78,0,2.63.2,2.63,2.36q-.12,69.84-.11,139.68C180.87,280.28,180.7,280.37,179.44,281.72Z"/><path d="M245.2,177.59c0-21.22.06-42.45-.06-63.66,0-2.85.6-3.87,3.64-3.75,6.11.26,12.23.17,18.35,0,2.25-.05,3.21.36,3.2,3q-.12,64.23,0,128.44c0,2.63-.95,3-3.23,3-6.24-.13-12.48-.19-18.75,0-2.76.1-3.24-.94-3.22-3.41Q245.24,209.44,245.2,177.59Z"/><path class="cls-2" d="M185.44,311V253.27c0-4.94,0-4.94,5-4.94,5.63,0,11.25.09,16.87-.05,2.42-.05,3.47.84,3.41,3.23,0,1.24.06,2.49.06,3.75q0,57.15.07,114.31c0,3.21-.7,4.45-4.12,4.28a156.57,156.57,0,0,0-16.5,0c-3.75.2-5-.87-4.92-4.77.19-19.36.09-38.73.09-58.09Z"/><path class="cls-2" d="M270.19,311.29c0,19.5-.07,38.94.07,58.41,0,3.31-1,4.35-4.25,4.21-5.73-.25-11.48-.17-17.25,0C246,374,245,373,245,370.2q.09-59.16,0-118.32c0-2.3.69-3.54,3.16-3.49,6.49.11,13,.21,19.47.19,2.42,0,2.49,1.5,2.48,3.21v23.59Z"/><path d="M304.69,253.49c0-28.73,0-56.44,0-84.15,0-2.13.58-2.76,2.71-2.72q10.11.19,20.25,0c2.07,0,2.44.75,2.43,2.6Q330,199,330,228.78c0,1.12.06,2.18-.93,3.05C321.13,238.84,313.24,245.87,304.69,253.49Z"/><path d="M150.5,252.92c-7.93-7.08-15.75-14.1-23.67-21.09-1-.9-.82-2-.82-3.12q0-29.57-.06-59.14c0-2.25.47-3,2.85-2.93,6.61.17,13.23.09,19.84,0,1.64,0,2.45.24,2.44,2.19q-.11,41.55-.09,83.1C151,252.12,150.8,252.34,150.5,252.92Z"/></g></g></g></g></svg>